<svg id="Logo" xmlns="http://www.w3.org/2000/svg" viewBox="0 0 206.82 47.75"><defs><style>.cls-1{fill:#555759;}.cls-2{fill:#fc4036;}</style></defs><title>a-lign-horiz-logo</title><path class="cls-1" d="M140.54,80.16l-2.16-4.53H125.79l-2.16,4.53h-4.9l10.42-21.51h5.73l10.55,21.51h-4.9Zm-8.47-17.32-4.15,8.51h8.31Z" transform="translate(-40.59 -48.13)"/><path class="cls-1" d="M156.72,80.16V58.65h4.44V75.76h12.25v4.4h-16.7Z" transform="translate(-40.59 -48.13)"/><path class="cls-1" d="M180.43,80.16V58.65h4.23V80.16h-4.23Z" transform="translate(-40.59 -48.13)"/><path class="cls-1" d="M206.47,80.87c-6.81,0-13-4.11-13-11.46s6.19-11.46,13-11.46a19.26,19.26,0,0,1,10.13,2.74L214,65a13.25,13.25,0,0,0-7.81-2.7c-4.23,0-8.39,2.41-8.39,7.06s3.9,7.1,8.18,7.1a11.48,11.48,0,0,0,6.56-2V71.94h-5.27v-4h9.68V77C213.61,79.67,210.79,80.87,206.47,80.87Z" transform="translate(-40.59 -48.13)"/><path class="cls-1" d="M243.13,80.16l-12-14.58V80.16h-4.28V58.65h4.28l12,14.53V58.65h4.28V80.16h-4.28Z" transform="translate(-40.59 -48.13)"/><rect class="cls-1" x="104.19" y="19.31" width="7.19" height="3.09"/><polygon class="cls-2" points="41.29 26.07 25.91 47.75 68.32 47.75 34.16 0 28.38 8.08 41.29 26.07"/><polygon class="cls-2" points="34.91 26.09 25.19 12.54 0 47.75 19.55 47.75 34.91 26.09"/></svg>